<?xml version="1.0" encoding="UTF-8"?>
<svg width="60px" height="40px" viewBox="0 0 60 40" version="1.1" xmlns="http://www.w3.org/2000/svg" xmlns:xlink="http://www.w3.org/1999/xlink">
    <!-- Generator: Sketch 46.2 (44496) - http://www.bohemiancoding.com/sketch -->
    <title>cityblock_lockup_white (1) copy 5</title>
    <desc>Created with Sketch.</desc>
    <defs></defs>
    <g id="Symbols" stroke="none" stroke-width="1" fill="none" fill-rule="evenodd">
        <g id="NAVBAR" fill="#FFFFFF">
            <g id="Group-6">
                <g id="cityblock_lockup_white-(1)-copy-5">
                    <polygon id="Stroke-1" fill-rule="nonzero" points="17.7099841 1.99923225 43.6971577 9.14152611 43.6971577 13.928814 45.2042539 13.928814 45.2042539 7.97433762 16.2028878 0.00362553732 16.2028878 13.928814 17.7099841 13.928814"></polygon>
                    <path d="M0,20.1219892 C0,17.834456 1.72317092,16.1638923 3.8878643,16.1638923 C5.65346084,16.1638923 6.68302216,17.0791054 7.19804948,18.206636 L6.00026563,18.8880501 C5.54838342,18.036782 4.88634639,17.4617764 3.8878643,17.4617764 C2.47992562,17.4617764 1.41829842,18.6112881 1.41829842,20.1219892 C1.41829842,21.6336894 2.47992562,22.7832011 3.8878643,22.7832011 C4.97021099,22.7832011 5.66382058,22.176223 6.06341075,21.1865739 L7.31348664,21.7081254 C6.86209775,23.0804455 5.71660595,24.0810852 3.8878643,24.0810852 C1.69159836,24.0810852 0,22.4105215 0,20.1219892" id="Fill-3"></path>
                    <polygon id="Fill-5" points="8.57293564 23.9531951 9.89700971 23.9531951 9.89700971 16.2912828 8.57293564 16.2912828"></polygon>
                    <polyline id="Fill-6" points="14.677292 23.9531951 13.353218 23.9531951 13.353218 17.5257214 11.0725941 17.5257214 11.0725941 16.2912828 16.9574226 16.2912828 16.9574226 17.5257214 14.677292 17.5257214 14.677292 23.9531951"></polyline>
                    <polyline id="Fill-7" points="22.5674712 16.2912828 24.0281952 16.2912828 21.3800471 20.7399578 21.3800471 23.9531951 20.055973 23.9531951 20.055973 20.7399578 17.4606102 16.2912828 18.9529068 16.2912828 20.7604356 19.3881201 22.5674712 16.2912828"></polyline>
                    <path d="M27.8726472,22.7192561 C28.6294019,22.7192561 29.0393519,22.304113 29.0393519,21.6441804 C29.0393519,20.9842478 28.6190422,20.5696043 27.8095021,20.5696043 L26.3596311,20.5696043 L26.3596311,22.7192561 L27.8726472,22.7192561 Z M26.3596311,17.5257214 L26.3596311,19.3346661 L27.5993473,19.3346661 C28.2406648,19.3346661 28.6190422,18.9839676 28.6190422,18.4304436 C28.6190422,17.8769195 28.2825971,17.5257214 27.6728522,17.5257214 L26.3596311,17.5257214 Z M25.0355571,23.9531951 L25.0355571,16.2912828 L27.7675698,16.2912828 C29.1651488,16.2912828 29.9850486,17.0791054 29.9850486,18.324035 C29.9850486,19.0798852 29.5538859,19.5479827 28.9969262,19.8457267 C29.8483986,20.0375618 30.4369308,20.7289673 30.4369308,21.6651624 C30.4369308,23.0170001 29.5435261,23.9531951 27.9145795,23.9531951 L25.0355571,23.9531951 L25.0355571,23.9531951 Z" id="Fill-8"></path>
                    <polyline id="Fill-9" points="31.7067395 16.2912828 33.0308136 16.2912828 33.0308136 22.7192561 36.0154068 22.7192561 36.0154068 23.9531951 31.7067395 23.9531951 31.7067395 16.2912828"></polyline>
                    <path d="M40.1647313,22.7832011 C41.57267,22.7832011 42.644657,21.5592534 42.644657,20.1219892 C42.644657,18.6112881 41.57267,17.4617764 40.1647313,17.4617764 C38.7567927,17.4617764 37.6848057,18.6112881 37.6848057,20.1219892 C37.6848057,21.6336894 38.7567927,22.7832011 40.1647313,22.7832011 Z M40.1647313,16.1638923 C42.3609973,16.1638923 44.0530889,17.834456 44.0530889,20.1219892 C44.0530889,22.304113 42.3609973,24.0810852 40.1647313,24.0810852 C37.9689587,24.0810852 36.276867,22.4105215 36.276867,20.1219892 C36.276867,17.834456 37.9689587,16.1638923 40.1647313,16.1638923 L40.1647313,16.1638923 Z" id="Fill-10"></path>
                    <path d="M45.0599575,20.1219892 C45.0599575,17.834456 46.7831284,16.1638923 48.9483151,16.1638923 C50.7134183,16.1638923 51.743473,17.0791054 52.258007,18.206636 L51.0602231,18.8880501 C50.6083409,18.036782 49.9463039,17.4617764 48.9483151,17.4617764 C47.5393898,17.4617764 46.4787492,18.6112881 46.4787492,20.1219892 C46.4787492,21.6336894 47.5393898,22.7832011 48.9483151,22.7832011 C50.0301685,22.7832011 50.7237781,22.176223 51.1228749,21.1865739 L52.3734441,21.7081254 C51.9215619,23.0804455 50.7765634,24.0810852 48.9483151,24.0810852 C46.7515559,24.0810852 45.0599575,22.4105215 45.0599575,20.1219892" id="Fill-11"></path>
                    <polyline id="Fill-12" points="58.2247268 23.9531951 56.0077413 20.5376318 54.9564739 21.7505889 54.9564739 23.9531951 53.6328931 23.9531951 53.6328931 16.2912828 54.9564739 16.2912828 54.9564739 19.8886898 57.9198543 16.2912828 59.6963039 16.2912828 56.942585 19.4625561 59.9691105 23.9531951 58.2247268 23.9531951"></polyline>
                    <polygon id="Stroke-13" fill-rule="nonzero" points="17.7099841 37.9280137 17.7099841 26.0888589 16.2028878 26.0888589 16.2028878 39.9236298 45.2037606 31.9529103 45.2037606 26.135319 43.6966644 26.135319 43.6966644 30.7857273"></polygon>
                </g>
            </g>
        </g>
    </g>
</svg>